# xmcd CD database file
#
# Track frame offsets:
#	150
#	14318
#	32017
#	45279
#	58948
#	74225
#	84961
#	97258
#	110539
#	128564
#	142555
#	153398
#	162617
#	173652
#
# Disc length: 2504 seconds
#
# Revision: 0
# Processed by: cddbd v1.5.2PL0 Copyright (c) Steve Scherf et al.
# Submitted via: Feurio! 1.63 - http://www.feurio.com
#
DISCID=b509c60e
DTITLE=Mike West - Home
DYEAR=2000
DGENRE=country
TTITLE0=Americans
TTITLE1=Elise
TTITLE2=Hillbilly Heaven
TTITLE3=Corps of Engineers
TTITLE4=Stillwater Firefighter
TTITLE5=God is Dawn in Oklahoma
TTITLE6=You're Gonna Burn
TTITLE7=Squirrels
TTITLE8=The Strap
TTITLE9=Don't Wake the Children
TTITLE10=New Jersey
TTITLE11=No Worries
TTITLE12=House full of Flowers
TTITLE13=In Mississippi
EXTD=
EXTT0=
EXTT1=
EXTT2=
EXTT3=
EXTT4=
EXTT5=
EXTT6=
EXTT7=
EXTT8=
EXTT9=
EXTT10=
EXTT11=
EXTT12=
EXTT13=
PLAYORDER=
